<svg width="24" height="26" viewBox="0 0 24 26" fill="none" xmlns="http://www.w3.org/2000/svg">
<path d="M14.5 0C13.322 0 12.2781 0.593236 11.6426 1.48833C11.169 1.17708 10.6051 0.992223 10 0.992223C8.35503 0.992223 7 2.33671 7 3.96889C7 4.318 7.07394 4.64867 7.1875 4.96111H2C0.895 4.96111 0 5.84915 0 6.94556V8.93H24V6.94556C24 5.84915 23.105 4.96111 22 4.96111H17.6445C17.865 4.50751 18 4.00661 18 3.47278C18 1.56653 16.4212 0 14.5 0ZM14.5 1.98445C15.3408 1.98445 16 2.63851 16 3.47278C16 4.30705 15.3408 4.96111 14.5 4.96111H13V3.96889V3.47278C13 2.63851 13.6592 1.98445 14.5 1.98445ZM10 2.97667C10.565 2.97667 11 3.40826 11 3.96889V4.96111H10C9.43497 4.96111 9 4.52953 9 3.96889C9 3.40826 9.43497 2.97667 10 2.97667ZM1 10.9144V23.8133C1 24.9098 1.895 25.7978 3 25.7978H21C22.105 25.7978 23 24.9098 23 23.8133V10.9144H1ZM9.77734 13.8911C10.6903 13.8911 11.494 14.3346 12 15.0093C12.506 14.3346 13.3097 13.8911 14.2227 13.8911C15.7567 13.8911 17 15.1248 17 16.6469C17 18.8675 13.7532 21.6438 12.4922 22.639C12.2012 22.8682 11.7988 22.8682 11.5078 22.639C10.2468 21.6438 7 18.8675 7 16.6469C7 15.1248 8.24334 13.8911 9.77734 13.8911Z" fill="white" fill-opacity="0.6"/>
</svg>
