<svg width="24" height="24" viewBox="0 0 24 24" fill="none" xmlns="http://www.w3.org/2000/svg">
<path d="M12 -2.2063e-05C5.38453 -2.2063e-05 0 5.38451 0 12C0 18.6154 5.38453 24 12 24C18.6155 24 24 18.6154 24 12C24 7.86026 21.8979 4.20013 18.6992 2.04295L19.8457 0.572244L15 0.396462L16.3984 4.99998L17.4609 3.63474C19.9274 5.24716 21.6393 7.90918 21.9453 11.0019C21.69 11.0159 21.4498 11.1271 21.274 11.3128C21.0982 11.4984 21.0001 11.7443 21 12C21.0002 12.2566 21.099 12.5033 21.2761 12.6891C21.4531 12.8749 21.6948 12.9855 21.9512 12.998C21.4843 17.7324 17.7324 21.4843 12.998 21.9511C12.9855 21.6948 12.8749 21.4531 12.6891 21.2761C12.5034 21.099 12.2566 21.0002 12 21C11.7434 21.0002 11.4966 21.099 11.3109 21.2761C11.1251 21.4531 11.0145 21.6948 11.002 21.9511C6.26756 21.4843 2.51572 17.7324 2.04883 12.998C2.30515 12.9855 2.54685 12.8749 2.7239 12.6891C2.90095 12.5033 2.9998 12.2566 3 12C2.9998 11.7433 2.90095 11.4966 2.7239 11.3108C2.54685 11.1251 2.30515 11.0145 2.04883 11.0019C2.54812 5.93893 6.80278 1.99998 12 1.99998C12.1325 2.00185 12.2641 1.97737 12.387 1.92796C12.51 1.87854 12.6219 1.80518 12.7163 1.71214C12.8107 1.61909 12.8856 1.50822 12.9368 1.38596C12.9879 1.26371 13.0142 1.1325 13.0142 0.999978C13.0142 0.867453 12.9879 0.736249 12.9368 0.613992C12.8856 0.491735 12.8107 0.380862 12.7163 0.287818C12.6219 0.194773 12.51 0.121413 12.387 0.0719989C12.2641 0.0225852 12.1325 -0.00189611 12 -2.2063e-05ZM11.9844 4.98631C11.7195 4.99045 11.4671 5.09951 11.2825 5.28955C11.098 5.47959 10.9964 5.7351 11 5.99998V11.5L7.40039 14.1992C7.18801 14.3582 7.0475 14.5951 7.00978 14.8577C6.97205 15.1204 7.04019 15.3872 7.19922 15.5996C7.35824 15.812 7.59513 15.9525 7.85775 15.9902C8.12037 16.0279 8.38723 15.9598 8.59961 15.8008L12.5996 12.8008C12.724 12.7076 12.8249 12.5867 12.8944 12.4477C12.9639 12.3087 13.0001 12.1554 13 12V5.99998C13.0018 5.86619 12.9768 5.73339 12.9264 5.60945C12.876 5.48551 12.8012 5.37295 12.7065 5.27843C12.6118 5.18391 12.4991 5.10935 12.375 5.05917C12.251 5.00899 12.1182 4.98422 11.9844 4.98631Z" fill="white" fill-opacity="0.6"/>
</svg>
