<svg width="28" height="22" viewBox="0 0 28 22" fill="none" xmlns="http://www.w3.org/2000/svg">
<path d="M22.5 0C21.672 0 21 0.672 21 1.5V1.61523L10 5V15L21 18.3848V18.5C21 19.328 21.672 20 22.5 20C23.328 20 24 19.328 24 18.5V1.5C24 0.672 23.328 0 22.5 0ZM8 5.19922L1.80078 5.82031C0.778781 5.92231 0 6.78255 0 7.81055V12.1895C0 13.2175 0.778781 14.0777 1.80078 14.1797L4.23047 14.4238L5.38086 21.168C5.46186 21.649 5.87823 22 6.36523 22H7C7.552 22 8 21.552 8 21L7.99609 14.8008H8V5.19922ZM26 7.5V12.5L26.4844 12.3789C27.3744 12.1559 28 11.3565 28 10.4395V9.5625C28 8.6445 27.3744 7.84409 26.4844 7.62109L26 7.5Z" fill="white" fill-opacity="0.6"/>
</svg>
