<svg width="26" height="22" viewBox="0 0 26 22" fill="none" xmlns="http://www.w3.org/2000/svg">
<path fill-rule="evenodd" clip-rule="evenodd" d="M2 0C0.895431 0 0 0.89543 0 2V20C0 21.1046 0.89543 22 2 22H24C25.1046 22 26 21.1046 26 20V2C26 0.895431 25.1046 0 24 0H2ZM13 10C13 7.791 11.209 6 9 6V10H13ZM7 12V8C4.791 8 3 9.791 3 12C3 14.209 4.791 16 7 16C9.209 16 11 14.209 11 12H7ZM17 6H19C19.552 6 20 6.448 20 7C20 7.552 19.552 8 19 8H17C16.448 8 16 7.552 16 7C16 6.448 16.448 6 17 6ZM22 10H17C16.448 10 16 10.448 16 11C16 11.552 16.448 12 17 12H22C22.552 12 23 11.552 23 11C23 10.448 22.552 10 22 10ZM16 15C16 14.448 16.448 14 17 14H21C21.552 14 22 14.448 22 15C22 15.552 21.552 16 21 16H17C16.448 16 16 15.552 16 15Z" fill="white"/>
</svg>
